<svg width="116" height="36" viewBox="0 0 116 36" fill="none" xmlns="http://www.w3.org/2000/svg">
<path d="M28.1667 14.339C28.1667 21.9822 21.9731 28.178 14.3333 28.178C6.69358 28.178 0.5 21.9822 0.5 14.339C0.5 6.69574 6.69358 0.5 14.3333 0.5C21.9731 0.5 28.1667 6.69574 28.1667 14.339Z" fill="#204D6E" stroke="white"/>
<path d="M42.5002 21.661C42.5002 29.3043 36.3066 35.5 28.6668 35.5C21.0271 35.5 14.8335 29.3043 14.8335 21.661C14.8335 14.0178 21.0271 7.82202 28.6668 7.82202C36.3066 7.82202 42.5002 14.0178 42.5002 21.661Z" fill="#F07413" stroke="white"/>
<path d="M52.5709 22V12.2H54.3909V22H52.5709ZM61.1156 14.44C61.7129 14.44 62.2449 14.5567 62.7116 14.79C63.1876 15.0233 63.5609 15.3827 63.8316 15.868C64.1023 16.344 64.2376 16.96 64.2376 17.716V22H62.4876V17.94C62.4876 17.2773 62.3289 16.7827 62.0116 16.456C61.7036 16.1293 61.2696 15.966 60.7096 15.966C60.2989 15.966 59.9349 16.05 59.6176 16.218C59.3003 16.386 59.0529 16.638 58.8756 16.974C58.7076 17.3007 58.6236 17.716 58.6236 18.22V22H56.8736V14.524H58.5396V16.54L58.2456 15.924C58.5069 15.448 58.8849 15.084 59.3796 14.832C59.8836 14.5707 60.4623 14.44 61.1156 14.44ZM69.9852 22.098C69.1546 22.098 68.4266 21.9347 67.8012 21.608C67.1852 21.272 66.7046 20.8147 66.3592 20.236C66.0232 19.6573 65.8552 18.9993 65.8552 18.262C65.8552 17.5153 66.0186 16.8573 66.3452 16.288C66.6812 15.7093 67.1386 15.2567 67.7172 14.93C68.3052 14.6033 68.9726 14.44 69.7192 14.44C70.4472 14.44 71.0959 14.5987 71.6652 14.916C72.2346 15.2333 72.6826 15.6813 73.0092 16.26C73.3359 16.8387 73.4992 17.52 73.4992 18.304C73.4992 18.3787 73.4946 18.4627 73.4852 18.556C73.4852 18.6493 73.4806 18.738 73.4712 18.822H67.2412V17.66H72.5472L71.8612 18.024C71.8706 17.5947 71.7819 17.2167 71.5952 16.89C71.4086 16.5633 71.1519 16.3067 70.8252 16.12C70.5079 15.9333 70.1392 15.84 69.7192 15.84C69.2899 15.84 68.9119 15.9333 68.5852 16.12C68.2679 16.3067 68.0159 16.568 67.8292 16.904C67.6519 17.2307 67.5632 17.618 67.5632 18.066V18.346C67.5632 18.794 67.6659 19.1907 67.8712 19.536C68.0766 19.8813 68.3659 20.1473 68.7392 20.334C69.1126 20.5207 69.5419 20.614 70.0272 20.614C70.4472 20.614 70.8252 20.5487 71.1612 20.418C71.4972 20.2873 71.7959 20.082 72.0572 19.802L72.9952 20.88C72.6592 21.272 72.2346 21.5753 71.7212 21.79C71.2172 21.9953 70.6386 22.098 69.9852 22.098ZM77.4902 22.098C76.8649 22.098 76.2629 22.0187 75.6842 21.86C75.1149 21.692 74.6622 21.4913 74.3262 21.258L74.9982 19.928C75.3342 20.1427 75.7356 20.32 76.2022 20.46C76.6689 20.6 77.1356 20.67 77.6022 20.67C78.1529 20.67 78.5496 20.5953 78.7922 20.446C79.0442 20.2967 79.1702 20.096 79.1702 19.844C79.1702 19.6387 79.0862 19.4847 78.9182 19.382C78.7502 19.27 78.5309 19.186 78.2602 19.13C77.9896 19.074 77.6862 19.0227 77.3502 18.976C77.0236 18.9293 76.6922 18.8687 76.3562 18.794C76.0296 18.71 75.7309 18.5933 75.4602 18.444C75.1896 18.2853 74.9702 18.0753 74.8022 17.814C74.6342 17.5527 74.5502 17.2073 74.5502 16.778C74.5502 16.302 74.6856 15.8913 74.9562 15.546C75.2269 15.1913 75.6049 14.9207 76.0902 14.734C76.5849 14.538 77.1682 14.44 77.8402 14.44C78.3442 14.44 78.8529 14.496 79.3662 14.608C79.8796 14.72 80.3042 14.8787 80.6402 15.084L79.9682 16.414C79.6136 16.1993 79.2542 16.0547 78.8902 15.98C78.5356 15.896 78.1809 15.854 77.8262 15.854C77.2942 15.854 76.8976 15.9333 76.6362 16.092C76.3842 16.2507 76.2582 16.4513 76.2582 16.694C76.2582 16.918 76.3422 17.086 76.5102 17.198C76.6782 17.31 76.8976 17.3987 77.1682 17.464C77.4389 17.5293 77.7376 17.5853 78.0642 17.632C78.4002 17.6693 78.7316 17.73 79.0582 17.814C79.3849 17.898 79.6836 18.0147 79.9542 18.164C80.2342 18.304 80.4582 18.5047 80.6262 18.766C80.7942 19.0273 80.8782 19.368 80.8782 19.788C80.8782 20.2547 80.7382 20.6607 80.4582 21.006C80.1876 21.3513 79.8002 21.622 79.2962 21.818C78.7922 22.0047 78.1902 22.098 77.4902 22.098ZM82.5533 22V12.2H86.8373C87.9013 12.2 88.8346 12.4053 89.6373 12.816C90.44 13.2267 91.0653 13.796 91.5133 14.524C91.9613 15.252 92.1853 16.1107 92.1853 17.1C92.1853 18.08 91.9613 18.9387 91.5133 19.676C91.0653 20.404 90.44 20.9733 89.6373 21.384C88.8346 21.7947 87.9013 22 86.8373 22H82.5533ZM84.3733 20.46H86.7533C87.4906 20.46 88.1253 20.32 88.6573 20.04C89.1986 19.76 89.614 19.368 89.9033 18.864C90.202 18.36 90.3513 17.772 90.3513 17.1C90.3513 16.4187 90.202 15.8307 89.9033 15.336C89.614 14.832 89.1986 14.44 88.6573 14.16C88.1253 13.88 87.4906 13.74 86.7533 13.74H84.3733V20.46ZM98.5577 22V20.488L98.4597 20.166V17.52C98.4597 17.0067 98.3057 16.61 97.9977 16.33C97.6897 16.0407 97.223 15.896 96.5977 15.896C96.1777 15.896 95.7624 15.9613 95.3517 16.092C94.9504 16.2227 94.6097 16.4047 94.3297 16.638L93.6437 15.364C94.045 15.056 94.521 14.8273 95.0717 14.678C95.6317 14.5193 96.2104 14.44 96.8077 14.44C97.8904 14.44 98.7257 14.7013 99.3137 15.224C99.911 15.7373 100.21 16.5353 100.21 17.618V22H98.5577ZM96.2057 22.098C95.6457 22.098 95.1557 22.0047 94.7357 21.818C94.3157 21.622 93.989 21.356 93.7557 21.02C93.5317 20.6747 93.4197 20.2873 93.4197 19.858C93.4197 19.438 93.5177 19.06 93.7137 18.724C93.919 18.388 94.2504 18.122 94.7077 17.926C95.165 17.73 95.7717 17.632 96.5277 17.632H98.6977V18.794H96.6537C96.0564 18.794 95.655 18.892 95.4497 19.088C95.2444 19.2747 95.1417 19.508 95.1417 19.788C95.1417 20.1053 95.2677 20.3573 95.5197 20.544C95.7717 20.7307 96.1217 20.824 96.5697 20.824C96.999 20.824 97.3817 20.726 97.7177 20.53C98.063 20.334 98.3104 20.0447 98.4597 19.662L98.7537 20.712C98.5857 21.1507 98.2824 21.4913 97.8437 21.734C97.4144 21.9767 96.8684 22.098 96.2057 22.098ZM105.27 22.098C104.448 22.098 103.814 21.888 103.366 21.468C102.918 21.0387 102.694 20.4087 102.694 19.578V12.872H104.444V19.536C104.444 19.8907 104.532 20.166 104.71 20.362C104.896 20.558 105.153 20.656 105.48 20.656C105.872 20.656 106.198 20.5533 106.46 20.348L106.95 21.594C106.744 21.762 106.492 21.888 106.194 21.972C105.895 22.056 105.587 22.098 105.27 22.098ZM101.462 15.98V14.58H106.446V15.98H101.462ZM112.995 22V20.488L112.897 20.166V17.52C112.897 17.0067 112.743 16.61 112.435 16.33C112.127 16.0407 111.661 15.896 111.035 15.896C110.615 15.896 110.2 15.9613 109.789 16.092C109.388 16.2227 109.047 16.4047 108.767 16.638L108.081 15.364C108.483 15.056 108.959 14.8273 109.509 14.678C110.069 14.5193 110.648 14.44 111.245 14.44C112.328 14.44 113.163 14.7013 113.751 15.224C114.349 15.7373 114.647 16.5353 114.647 17.618V22H112.995ZM110.643 22.098C110.083 22.098 109.593 22.0047 109.173 21.818C108.753 21.622 108.427 21.356 108.193 21.02C107.969 20.6747 107.857 20.2873 107.857 19.858C107.857 19.438 107.955 19.06 108.151 18.724C108.357 18.388 108.688 18.122 109.145 17.926C109.603 17.73 110.209 17.632 110.965 17.632H113.135V18.794H111.091C110.494 18.794 110.093 18.892 109.887 19.088C109.682 19.2747 109.579 19.508 109.579 19.788C109.579 20.1053 109.705 20.3573 109.957 20.544C110.209 20.7307 110.559 20.824 111.007 20.824C111.437 20.824 111.819 20.726 112.155 20.53C112.501 20.334 112.748 20.0447 112.897 19.662L113.191 20.712C113.023 21.1507 112.72 21.4913 112.281 21.734C111.852 21.9767 111.306 22.098 110.643 22.098Z" fill="#204D6E"/>
</svg>
